<?xml version="1.0" encoding="utf-8"?>
<!-- Generator: Adobe Illustrator 24.0.3, SVG Export Plug-In . SVG Version: 6.00 Build 0)  -->
<svg version="1.1" id="b665ac0c-e2fc-4bb5-9b25-39c3bd142587"
	 xmlns="http://www.w3.org/2000/svg" xmlns:xlink="http://www.w3.org/1999/xlink" x="0px" y="0px" viewBox="0 0 1061 530.9"
	 style="enable-background:new 0 0 1061 530.9;" xml:space="preserve">
<style type="text/css">
	.st0{fill:#3F3D56;}
	.st1{opacity:0.1;enable-background:new    ;}
	.st2{fill:#44D7B5;}
	.st3{fill:#E2BC00;}
	.st4{fill:#FFCCCC;}
	.st5{opacity:0.15;enable-background:new    ;}
	.st6{fill:#FFFFFF;}
</style>
<title>online_ad</title>
<path class="st0" d="M828.8,99.7H568.6v-5.4h-118v5.4H189.4c-9.7,0-17.6,7.9-17.6,17.6v0v356.3c0,9.7,7.9,17.6,17.6,17.6h639.4
	c9.7,0,17.6-7.9,17.6-17.6V117.3C846.4,107.6,838.5,99.7,828.8,99.7L828.8,99.7z"/>
<rect x="195.4" y="130.8" class="st1" width="627.4" height="353.9"/>
<circle class="st2" cx="508.6" cy="114.7" r="6.4"/>
<path class="st0" d="M864,478.3h-61.2v-4.4c0-0.5-0.4-0.9-0.9-0.9l0,0h-21c-0.5,0-0.9,0.4-0.9,0.9l0,0v4.4h-13.1v-4.4
	c0-0.5-0.4-0.9-0.9-0.9l0,0h-21c-0.5,0-0.9,0.4-0.9,0.9l0,0v4.4h-13.1v-4.4c0-0.5-0.4-0.9-0.9-0.9l0,0h-21c-0.5,0-0.9,0.4-0.9,0.9
	l0,0v4.4h-13.1v-4.4c0-0.5-0.4-0.9-0.9-0.9l0,0h-21c-0.5,0-0.9,0.4-0.9,0.9l0,0v4.4h-13.1v-4.4c0-0.5-0.4-0.9-0.9-0.9l0,0h-21
	c-0.5,0-0.9,0.4-0.9,0.9l0,0v4.4h-13.1v-4.4c0-0.5-0.4-0.9-0.9-0.9l0,0h-21c-0.5,0-0.9,0.4-0.9,0.9l0,0v4.4h-13.1v-4.4
	c0-0.5-0.4-0.9-0.9-0.9l0,0H422.3c-0.5,0-0.9,0.4-0.9,0.9l0,0v4.4h-13.1v-4.4c0-0.5-0.4-0.9-0.9-0.9h0h-21c-0.5,0-0.9,0.4-0.9,0.9v0
	v4.4h-13.1v-4.4c0-0.5-0.4-0.9-0.9-0.9h0h-21c-0.5,0-0.9,0.4-0.9,0.9l0,0v4.4h-13.1v-4.4c0-0.5-0.4-0.9-0.9-0.9h0h-21
	c-0.5,0-0.9,0.4-0.9,0.9l0,0v4.4h-13.1v-4.4c0-0.5-0.4-0.9-0.9-0.9h0h-21c-0.5,0-0.9,0.4-0.9,0.9l0,0v4.4h-13.1v-4.4
	c0-0.5-0.4-0.9-0.9-0.9h0h-21c-0.5,0-0.9,0.4-0.9,0.9l0,0v4.4H229v-4.4c0-0.5-0.4-0.9-0.9-0.9h0h-21c-0.5,0-0.9,0.4-0.9,0.9l0,0v4.4
	H166c-11.6,0-21,9.4-21,21v9.5c0,11.6,9.4,21,21,21h698c11.6,0,21-9.4,21-21v-9.5C885,487.7,875.6,478.3,864,478.3z"/>
<rect x="382.2" y="171" class="st2" width="254" height="267"/>
<path class="st3" d="M516.6,159.9c0,0-21.7-7.7-35.6,23.2s-35.6,65-35.6,65l12.4,3.1c0,0,3.1-21.7,10.8-24.8l-3.1,27.8
	c0,0,92.8,32.5,134.6-3.1l-1.5-10.8c0,0,6.2,1.5,6.2,10.8l4.6-4.6c0,0-4.6-9.3-18.6-21.7c-9.1-8.1-12.3-23.6-13.4-33.2
	c-0.8-8.1-4-15.7-9.3-21.9C558.9,159,542.1,147.6,516.6,159.9z"/>
<path class="st4" d="M396.9,189.1l-9-94c0,0-18-51,9-47s11,43,11,43l15,98H396.9z"/>
<circle class="st4" cx="527.9" cy="223.1" r="36"/>
<path class="st4" d="M501.9,239.1c0,0-2,41-12,44s-38,36-25,46s88,3,88,3l-7-52c0,0-16-11-3-30L501.9,239.1z"/>
<path class="st0" d="M576.9,440H435.5c0.5-9,1.8-21.8,3.4-35.9c0.5-4.3,1-8.7,1.6-13.1c4.8-39,11.3-81.9,11.3-81.9l1.7-3.9
	l17.3-40.1l0.2,0.1l22.8,8.9l0.8,3.8l6.2,29.2l40-32.3l37-5.8l2.5-0.4l4.5,42.5c0,0-0.2,9.5-0.4,23c-0.2,15.5-0.5,36.4-0.5,54.3
	c0,8.5,0.1,16.4,0.2,22.7c0.1,5.3,0.4,9.5,0.6,12C585.5,428.8,582,434.7,576.9,440z"/>
<polygon class="st0" points="471.9,270.1 470.9,264.1 442.9,230.1 426.9,173.1 387.9,188.1 415.9,257.1 455.9,308.1 "/>
<path class="st3" d="M480.6,227.4c0,0,12.4-17,23.2-20.1s12.4-18.6,12.4-18.6s27.8,30.9,44.9,32.5s1.5-37.1,1.5-37.1l-30.9-7.7
	l-29.4,3.1L479,194.9L480.6,227.4z"/>
<path class="st4" d="M580.2,406l-95.7,3.8c0,0-52.7,12.1-45.7-14.3s44-6,44-6l99.1-3.7L580.2,406z"/>
<path class="st0" d="M569.4,275.6l9-7c0,0,15-8,18,20s25,121,3,122s-78,2-78,2l6-31l46-3L569.4,275.6z"/>
<polygon class="st5" points="572.4,318.6 569.4,375.6 525.4,384.6 565.4,368.6 "/>
<rect x="286.9" class="st2" width="244" height="64"/>
<rect y="528.9" class="st0" width="1061" height="2"/>
<path class="st2" d="M958,459c14.4,15.4,15.1,38.1,15.1,38.1s-22.6-2.3-36.9-17.8S921,441.3,921,441.3S943.6,443.6,958,459z"/>
<path class="st2" d="M1003.2,483.1c-15.4,14.4-38.1,15.1-38.1,15.1s2.3-22.6,17.8-36.9s38.1-15.1,38.1-15.1
	S1018.6,468.7,1003.2,483.1z"/>
<path class="st0" d="M999.4,528.9h-56.7c-2.2,0-4.2-1.3-5.2-3.3l-12.4-25.4c-1.4-2.9-0.2-6.4,2.7-7.8c0.8-0.4,1.7-0.6,2.5-0.6h81.4
	c3.2,0,5.8,2.6,5.8,5.8c0,0.9-0.2,1.7-0.6,2.5l-12.4,25.4C1003.6,527.6,1001.6,528.9,999.4,528.9z"/>
<path class="st2" d="M61,459c14.4,15.4,15.1,38.1,15.1,38.1s-22.6-2.3-36.9-17.8S24,441.3,24,441.3S46.6,443.6,61,459z"/>
<path class="st0" d="M93.4,528.9H36.6c-2.2,0-4.2-1.3-5.2-3.3l-12.4-25.4c-1.4-2.9-0.2-6.4,2.7-7.8c0.8-0.4,1.7-0.6,2.5-0.6h81.4
	c3.2,0,5.8,2.6,5.8,5.8c0,0.9-0.2,1.7-0.6,2.5l-12.4,25.4C97.6,527.6,95.6,528.9,93.4,528.9z"/>
<rect x="317.9" y="25.7" class="st6" width="182" height="12.6"/>
</svg>
